<svg xmlns="http://www.w3.org/2000/svg" width="21.105" height="21.106"  xmlns:v="https://vecta.io/nano" fill="#ffffff"><path d="M10.552 21.106c-2.82 0-3.2-.012-4.351-.063C2.362 20.866.239 18.744.064 14.9L0 10.553.065 6.2C.24 2.362 2.363.239 6.2.064L10.552 0l4.353.065c3.842.176 5.964 2.3 6.137 6.138l.063 4.35-.064 4.352c-.174 3.838-2.3 5.961-6.137 6.138l-4.352.063zm0-15.971a5.419 5.419 0 1 0 5.419 5.418 5.424 5.424 0 0 0-5.419-5.419zm5.634-1.481a1.267 1.267 0 1 0 1.265 1.267 1.269 1.269 0 0 0-1.265-1.267zm-5.634 10.417a3.518 3.518 0 1 1 3.518-3.518 3.522 3.522 0 0 1-3.518 3.518z"/></svg>