<svg xmlns="http://www.w3.org/2000/svg" width="74.523" height="125.497"  xmlns:v="https://vecta.io/nano"><defs><clipPath id="A"><path transform="translate(0 .011)" fill="#fff" d="M0 0h74.523v125.497H0z"/></clipPath></defs><g transform="translate(0 -.011)" clip-path="url(#A)" fill="#fff"><path d="M21.823 36.187h15.386c3.742 0 8.661 0 11.226 1.544a10.13 10.13 0 0 1 4.972 8.871c.151 4.191-2.386 8.011-6.306 9.5h0c4.917.834 8.408 5.25 8.085 10.227.037 3.363-1.331 6.59-3.775 8.9s-5.742 3.496-9.099 3.27H21.823zm5.626 18.317h11.3c6.411 0 9.028-2.3 9.028-6.777 0-5.861-4.161-6.7-9.028-6.7h-11.3zm0 19.442h14.156c2.089.17 4.149-.57 5.653-2.028s2.306-3.496 2.201-5.589c0-5.521-4.448-7.065-9.211-7.065H27.449zM69.63 57.565c-.065 15.386-10.985 28.586-26.086 31.531A32.27 32.27 0 0 1 7.519 69.681c-5.843-14.234-.822-30.613 11.994-39.126a32.27 32.27 0 0 1 40.717 4.11c6.053 6.08 9.436 14.32 9.4 22.9zM37.366 20.251C19.654 20.263 4.417 32.784.971 50.157s5.858 34.762 22.223 41.534 35.237 1.043 45.074-13.685 7.903-34.355-4.62-46.879c-6.971-6.968-16.426-10.88-26.282-10.876zM.21 102.415h74.183v4.867H.21zm69.316-8.53h.55a1.38 1.38 0 0 0 .471 0c.128-.067.236-.167.314-.288a.97.97 0 0 0 0-.523.63.63 0 0 0 0-.419.5.5 0 0 0-.262-.262c-.129-.026-.263-.026-.392 0h-1.6v1.779zm.366-2.617a2.22 2.22 0 0 1 1.465.393c.61.646.61 1.654 0 2.3a1.99 1.99 0 0 1-1.047.419l1.57 2.46h-.916l-1.517-2.402h-.916v2.4h-.863v-5.439zm-3.925 4.37a3.74 3.74 0 0 0 .837 1.308 3.59 3.59 0 0 0 1.254.864 3.95 3.95 0 0 0 3.088 0 3.74 3.74 0 0 0 2.12-2.041 3.95 3.95 0 0 0 .262-1.57 4.03 4.03 0 0 0-.314-1.6 4.29 4.29 0 0 0-.811-1.282c-.361-.363-.787-.656-1.256-.864a3.95 3.95 0 0 0-3.088 0c-.476.195-.904.489-1.256.864a3.9 3.9 0 0 0-.837 1.282c-.191.512-.289 1.054-.288 1.6a4.45 4.45 0 0 0 .288 1.6m-.785-3.48a4.66 4.66 0 0 1 1.047-1.492 4.24 4.24 0 0 1 1.518-.994 4.89 4.89 0 0 1 3.716 0 4.16 4.16 0 0 1 1.492.994 4.66 4.66 0 0 1 1.047 1.492c.76 1.792.346 3.866-1.043 5.229a4.58 4.58 0 0 1-1.492 1.02 5.23 5.23 0 0 1-3.716 0 4.71 4.71 0 0 1-1.518-1.02c-1.359-1.38-1.771-3.436-1.047-5.233m-56-88.417a2.93 2.93 0 0 0-.654-.733 2.3 2.3 0 0 0-.89-.55 2.85 2.85 0 0 0-1.047 0 3.8 3.8 0 0 0-1.7.366 3.32 3.32 0 0 0-1.126 1.047 4.37 4.37 0 0 0-.628 1.47 7.43 7.43 0 0 0-.183 1.727 6.7 6.7 0 0 0 .183 1.618 4.2 4.2 0 0 0 .628 1.439c.288.432.673.79 1.125 1.046a3.8 3.8 0 0 0 1.7.366c.79.044 1.561-.251 2.12-.811a3.85 3.85 0 0 0 .916-2.2h2.852a6.33 6.33 0 0 1-.576 2.277 5.58 5.58 0 0 1-1.23 1.727c-.521.486-1.135.86-1.806 1.1-.73.261-1.502.385-2.277.366-.951.024-1.897-.154-2.774-.523a6.28 6.28 0 0 1-2.067-1.6A6.75 6.75 0 0 1 .445 9.811 8.33 8.33 0 0 1 0 7.198a8.71 8.71 0 0 1 .445-2.9 6.88 6.88 0 0 1 1.308-2.25 5.99 5.99 0 0 1 2.068-1.5c.875-.378 1.82-.565 2.773-.55a6.88 6.88 0 0 1 2.094.314 5.52 5.52 0 0 1 1.779.942c1.093.889 1.782 2.182 1.91 3.585H9.525a2.41 2.41 0 0 0-.34-.942zm7.509 7.508a2.41 2.41 0 0 0 1.622.576c.492.017.977-.12 1.387-.393a1.96 1.96 0 0 0 .733-.864h2.355c-.252 1.054-.874 1.983-1.753 2.617a4.81 4.81 0 0 1-2.721.628c-.707.019-1.41-.106-2.067-.366-.601-.214-1.139-.574-1.568-1.046a4.71 4.71 0 0 1-.994-1.6 6.57 6.57 0 0 1-.34-2.067 5.78 5.78 0 0 1 .366-2.041 4.5 4.5 0 0 1 1.047-1.622c.434-.473.971-.84 1.57-1.073a5.01 5.01 0 0 1 1.989-.393 4.63 4.63 0 0 1 2.146.471 4.26 4.26 0 0 1 1.516 1.286c.396.553.689 1.174.864 1.832.167.711.228 1.443.183 2.172H16.04a2.83 2.83 0 0 0 .654 1.883zm3.035-5.1c-.373-.373-.886-.573-1.413-.55a2.25 2.25 0 0 0-1.753.759 1.86 1.86 0 0 0-.34.68c-.02.209-.02.419 0 .628h4.159a3.14 3.14 0 0 0-.652-1.519zm7.066-2.278v1.805h0c.127-.305.304-.586.522-.834a3.04 3.04 0 0 1 .733-.68 4.4 4.4 0 0 1 .867-.42 4.12 4.12 0 0 1 .994-.131h.576v2.615h-.97a2.62 2.62 0 0 0-1.23.262 1.99 1.99 0 0 0-.811.654 2.62 2.62 0 0 0-.445.994c-.087.404-.13.817-.131 1.23v4.213h-2.617V4.028zm10.86-.001v1.775h-1.963v4.815c-.037.316.047.634.235.89.256.188.574.273.89.236h.837v2.067h-1.57a8.27 8.27 0 0 1-1.178 0 2.8 2.8 0 0 1-.89-.393 1.7 1.7 0 0 1-.654-.707 2.17 2.17 0 0 1-.262-1.178v-5.73h-1.7V4.027h1.622v-2.93h2.619v2.93z"/><path d="M39.015 2.614V.312h2.617v2.3zm2.617 1.518v9.6h-2.617V4.027zm1.121 1.675V4.028h1.727v-.759a2.85 2.85 0 0 1 .811-2.12 3.3 3.3 0 0 1 2.438-.837h1.413v2.067h-.968c-.287-.031-.574.065-.785.262a1.18 1.18 0 0 0-.236.837v.6h1.832v1.777h-1.884v7.85h-2.617v-7.85zm7.724-3.193V.312h2.612v2.3zm2.612 1.518v9.6h-2.612V4.027zm4.269 7.274a2.33 2.33 0 0 0 1.727.576 2.4 2.4 0 0 0 1.387-.393 1.73 1.73 0 0 0 .706-.864h2.355a4.37 4.37 0 0 1-1.727 2.617 4.92 4.92 0 0 1-2.826.759c-.698.02-1.393-.105-2.041-.366a3.87 3.87 0 0 1-1.57-1.047 4.71 4.71 0 0 1-.994-1.6 5.91 5.91 0 0 1-.34-2.067 5.78 5.78 0 0 1 .366-2.041 4.84 4.84 0 0 1 .994-1.753 4.66 4.66 0 0 1 1.57-1.073 5.03 5.03 0 0 1 2.015-.393 4.66 4.66 0 0 1 2.172.471 4.26 4.26 0 0 1 1.518 1.287 5.08 5.08 0 0 1 .837 1.832 6.68 6.68 0 0 1 .209 2.172h-7.012a2.62 2.62 0 0 0 .654 1.884zm3.009-5.1c-.373-.389-.901-.591-1.439-.55a2.17 2.17 0 0 0-1.073.236c-.262.122-.495.301-.68.523a1.86 1.86 0 0 0-.34.68 2.07 2.07 0 0 0 0 .628h4.344a3.14 3.14 0 0 0-.811-1.518zm11.435 6.173c-.272.509-.704.913-1.23 1.151a4 4 0 0 1-1.727.34 4.11 4.11 0 0 1-1.91-.419 3.88 3.88 0 0 1-1.361-1.151c-.373-.493-.648-1.053-.811-1.649a6.96 6.96 0 0 1-.266-1.961 6.44 6.44 0 0 1 .262-1.884 4.97 4.97 0 0 1 .811-1.675c.371-.449.824-.822 1.335-1.1a4 4 0 0 1 1.892-.418 3.61 3.61 0 0 1 1.649.366c.513.219.942.597 1.225 1.077h0V.312h2.617v13.423h-2.617v-1.256zm0-4.789a2.62 2.62 0 0 0-.393-.968c-.195-.293-.455-.533-.759-.707a2.25 2.25 0 0 0-1.072-.259 2.46 2.46 0 0 0-1.125.262 2.04 2.04 0 0 0-.707.707c-.186.31-.327.644-.419.994-.04.383-.04.768 0 1.151-.051.373-.051.752 0 1.125a3.08 3.08 0 0 0 .419.994 2.17 2.17 0 0 0 .733.733 1.99 1.99 0 0 0 1.073.262c.383.013.763-.078 1.1-.262a2.27 2.27 0 0 0 .707-.707c.169-.312.292-.647.366-.994.039-.392.039-.786 0-1.178.031-.384.021-.77-.028-1.152zM6.882 116.859c-.147-1.019-1.038-1.764-2.067-1.727-1.858 0-2.617 1.57-2.617 3.219s.68 3.166 2.617 3.166a2.12 2.12 0 0 0 2.146-2.12h2.015a3.98 3.98 0 0 1-1.275 2.795c-.782.724-1.822 1.102-2.886 1.052-2.583-.191-4.581-2.343-4.581-4.932a4.95 4.95 0 0 1 4.581-4.933c2.046-.125 3.835 1.365 4.082 3.4zm6.411-.758a3.61 3.61 0 0 1 0 7.2 3.61 3.61 0 0 1 0-7.2zm0 5.783c1.282 0 1.649-1.1 1.649-2.172s-.366-2.2-1.649-2.2-1.649 1.1-1.649 2.2.367 2.172 1.649 2.172zm4.605-5.6h1.779v1.282h0c.372-.874 1.222-1.448 2.172-1.465a1.18 1.18 0 0 1 .419 0v1.727h-.68c-1.361 0-1.832.994-1.832 2.172v3.089h-1.858zm5.391 0h1.779v.89h0a2.25 2.25 0 0 1 2.041-1.073c2.12 0 3.088 1.727 3.088 3.663a3.14 3.14 0 0 1-2.983 3.533 2.46 2.46 0 0 1-2.041-1.021h0v3.323h-1.884zm5.076 3.428c0-1.073-.445-2.2-1.649-2.2s-1.622 1.1-1.622 2.2.419 2.172 1.649 2.172 1.622-1.047 1.622-2.172zm6.281-3.611a3.61 3.61 0 0 1 0 7.2 3.61 3.61 0 0 1 0-7.2zm0 5.783c1.282 0 1.675-1.1 1.675-2.172s-.393-2.2-1.675-2.2-1.649 1.1-1.649 2.2.393 2.172 1.649 2.172zm4.762-5.6h1.779v1.282h0c.372-.874 1.222-1.448 2.172-1.465a1.18 1.18 0 0 1 .419 0v1.727h-.68c-1.361 0-1.858.994-1.858 2.172v3.089h-1.859zm5.076 2.094c0-1.753 1.675-2.277 3.192-2.277s3.009.314 3.009 1.936v3.556a3.35 3.35 0 0 0 .236 1.518h-1.91a2.9 2.9 0 0 1 0-.654 3.22 3.22 0 0 1-2.3.837c-.586.084-1.18-.094-1.623-.488s-.691-.961-.677-1.553c0-1.544 1.151-1.91 2.3-2.067s2.224 0 2.224-.916-.55-.916-1.2-.916a1.11 1.11 0 0 0-1.256 1.021zm4.318 1.387c-.314.288-.968.288-1.544.393s-1.125.34-1.125 1.021.55.864 1.151.864a1.39 1.39 0 0 0 1.518-1.57zm5.678-3.481h1.361v1.256H54.48v3.376c0 .628.157.785.785.785a2.25 2.25 0 0 0 .576 0v1.465a7.25 7.25 0 0 1-1.1 0c-1.151 0-2.146-.262-2.146-1.622v-4h-1.121v-1.26h1.125v-2.037h1.884zm4.187-1.152h-1.884v-1.544h1.884zm-1.884 1.047h1.884v6.83h-1.884zm6.384-.078a3.61 3.61 0 1 1-3.506 3.611 3.38 3.38 0 0 1 .945-2.59 3.37 3.37 0 0 1 2.561-1.021zm0 5.783c1.282 0 1.675-1.1 1.675-2.172s-.392-2.2-1.675-2.2-1.622 1.1-1.622 2.2.366 2.172 1.622 2.172zm4.867-5.6h1.779v.968h0a2.46 2.46 0 0 1 2.093-1.151c1.989 0 2.486 1.125 2.486 2.826v4.187h-1.857v-3.847c0-1.125-.34-1.675-1.2-1.675s-1.465.549-1.465 1.936v3.585h-1.836z"/></g></svg>