<!DOCTYPE svg PUBLIC "-//W3C//DTD SVG 1.1//EN" "http://www.w3.org/Graphics/SVG/1.1/DTD/svg11.dtd">
<!-- Uploaded to: SVG Repo, www.svgrepo.com, Transformed by: SVG Repo Mixer Tools -->
<svg width="800px" height="800px" viewBox="0 0 28 28" fill="none" xmlns="http://www.w3.org/2000/svg">
<g id="SVGRepo_bgCarrier" stroke-width="0"/>
<g id="SVGRepo_tracerCarrier" stroke-linecap="round" stroke-linejoin="round"/>
<g id="SVGRepo_iconCarrier">
<path clip-rule="evenodd" d="M11.4948 9.31065L18.1027 2.82973C19.91 1.05725 23 2.3126 23 4.81925V23.1808C23 25.6874 19.9099 26.9427 18.1027 25.1703L11.4948 18.6893H8.44375C7.0941 18.6893 6 17.6163 6 16.2926V11.7074C6 10.3837 7.0941 9.31065 8.44375 9.31065H11.4948ZM8.44375 11.3948C8.26771 11.3948 8.125 11.5348 8.125 11.7074V16.2926C8.125 16.4652 8.26771 16.6052 8.44375 16.6052H10.25V11.3948H8.44375ZM12.5928 16.8188C12.4534 16.682 12.375 16.4965 12.375 16.303V11.697C12.375 11.5035 12.4534 11.318 12.5928 11.1812L19.6053 4.30345C20.0739 3.84392 20.875 4.16938 20.875 4.81925V23.1808C20.875 23.8306 20.0739 24.1561 19.6053 23.6966L12.5928 16.8188Z" fill="#FFFFFF" fill-rule="evenodd"/>
</g>
</svg>